<svg width="800" height="600" viewBox="0 0 800 600" version="1.1" xmlns="http://www.w3.org/2000/svg"><defs><linearGradient x1="50%" y1="0%" x2="50%" y2="100%" id="linearGradient-1"><stop stop-color="#FDFDFD" offset="0%"/><stop stop-color="#FAFAFA" offset="100%"/></linearGradient></defs><g id="Illustrations-/-Data" stroke="none" stroke-width="1" fill="none" fill-rule="evenodd"><g id="Illustration" transform="translate(66 43)"><path d="M318.117 431.922c-60.955 8.543-117.83-10.6-158.47-24.278-37.232-12.531-53.432-23.243-56.232-19.166-5.642 8.213 46.955 70.883 117.575 97.112 88.328 32.806 202.1 17.769 217.258-25.556 5.65-16.151-1.896-37.698-15.336-47.279-22.496-16.035-47.846 11.186-104.795 19.167" id="Fill-1" fill="url(#linearGradient-1)" transform="rotate(-13 271.57 445.472)"/><path d="M259.675 13.667c125.33 14.274 145.234 61.035 249.938 56.566 74.07-3.16 112.513-22.231 142.146 3.239 14.785 12.708 21.115 41.347 10.16 58.057-28.355 43.253-143.91-15.171-287.379 11.74-130.889 24.552-236.603 107.376-224.969 134.852 7.635 18.029 69.82 12.303 114.662-2.903 64.78-21.967 77.434-58.316 121.918-82.73 87.727-48.147 250.334-23.032 297.54 75.473 40.162 83.809-9.143 208.36-60.96 216.26-59.377 9.054-82.164-141.147-188.684-159.655-89.482-15.547-123.757 81.703-229.322 76.925C109.665 397.189 6.638 332.012.5 225.5-4.873 132.261 50.147 76.562 57.986 70.233 130.3 11.857 242.316 11.69 259.675 13.667z" id="Fill-4" fill="url(#linearGradient-1)"/><path d="M493.53 21.082c-8.083-15.078-41.789-11.7-46.774 0-4.944 11.605 15.293 38.604 31.86 34.292 12.288-3.197 20.872-23.177 14.914-34.292" id="Fill-6" fill="url(#linearGradient-1)" transform="rotate(-45 470.732 33.418)"/><path d="M168.232 420.032c0 1.354.878 2.45 1.96 2.45h316.08c1.082 0 1.96-1.096 1.96-2.45 0-1.353-.878-2.45-1.96-2.45h-316.08c-1.082 0-1.96 1.097-1.96 2.45" id="Fill-8" fill="#ECEFF1"/><path d="M170.901 344.635c0 2.192 1.422 3.968 3.175 3.968h204.192c1.753 0 3.175-1.776 3.175-3.968 0-2.191-1.422-3.968-3.175-3.968H174.076c-1.753 0-3.175 1.777-3.175 3.968" id="Fill-10" fill="#ECEFF1"/><path id="Fill-12" fill="#ECEFF1" d="M189.165 420.032h-5.307l19.435-75.397h5.307z"/><path id="Fill-14" fill="#ECEFF1" d="M222.727 420.032h5.307L208.6 344.635h-5.307z"/><path id="Fill-16" fill="#ECEFF1" d="M329.617 420.032h-5.307l19.435-75.397h5.307z"/><path id="Fill-18" fill="#ECEFF1" d="M363.18 420.032h5.306l-19.435-75.397h-5.306z"/><path d="M230.837 313.834h-36.752c-1.504 0-2.424 1.65-1.634 2.93l12.766 20.664h43.387l-12.9-20.88a5.72 5.72 0 0 0-4.867-2.714" id="Fill-20" fill="#455A64"/><path id="Fill-22" fill="#2196F3" d="M230.788 317.073h-33.67l11.338 17.116h33.669z"/><path id="Fill-24" fill="#455A64" d="M205.217 340.667h64.327v-3.239h-64.327z"/><path d="M116.19 137.655c0 6.61-3.53 12.4-8.81 15.58a18.178 18.178 0 0 1-9.37 2.59c-3.43 0-6.63-.95-9.37-2.59-5.28-3.18-8.81-8.97-8.81-15.58 0-10.05 8.14-18.18 18.18-18.18s18.18 8.13 18.18 18.18" id="Fill-26" fill="#FFD54F"/><path d="M91.275 132.442c-2.232 4.025-1.028 9.248 2.69 11.665 3.72 2.417 8.544 1.113 10.777-2.912 2.232-4.025 1.028-9.249-2.69-11.665-3.719-2.418-8.545-1.113-10.777 2.912" id="Fill-27" fill="#FFB74D"/><path d="M102.199 138.689c.637 1.024 2.627.939 3.651.302a2.185 2.185 0 1 0-2.306-3.71c-1.025.637-1.983 2.384-1.345 3.408" id="Fill-28" fill="#FFB74D"/><path d="M93.818 138.689c-.637 1.024-2.627.939-3.65.302a2.186 2.186 0 0 1-.704-3.009 2.186 2.186 0 0 1 3.01-.701c1.024.637 1.981 2.384 1.344 3.408" id="Fill-29" fill="#FFB74D"/><path d="M99.888 128.543c-.034.298.102.833.365 1.448v.007c.047.115.103.23.156.345.554 1.164 1.49 2.517 2.572 3.113.541.297 1.178.453 1.8.52.033.007.075.007.107.014.487.054.962.054 1.374.034.022-.352.034-.717.04-1.103v-.027a9.834 9.834 0 0 0-.236-1.698c-.312-1.367-1.035-2.68-2.124-3.607-1.09.04-4.026.69-4.053.954" id="Fill-30" fill="#6D4C41"/><path d="M90.842 133.337s8.128.478 10.473-2.337c2.345-2.815-2.025-3.142-4.894-2.85-2.87.291-4.111 2.5-5.58 5.187" id="Fill-31" fill="#6D4C41"/><path d="M89.74 134.7c.024.515.084.973.152 1.352.125.697.462 1.334.963 1.835l.291-3.22.155-1.672 4.48-2.32v-.008l1.638-.845 2.99 1.197 4.107 1.644.264 1.99.413 3.071c.46-.349.775-.858.877-1.427a14.83 14.83 0 0 0 .192-1.597c.021-.352.034-.717.04-1.103v-.027c.014-.5.014-1.042.014-1.624 0-2.145-.432-5.399-2.212-4.818-1.787.575-3.032-.128-7.004-.798-2.097-.352-3.782.217-5.007 1.26a6.464 6.464 0 0 0-2.266 4.322c-.109 1.062-.136 1.962-.088 2.788" id="Fill-32" fill="#6D4C41"/><path d="M107.38 153.235a18.178 18.178 0 0 1-9.37 2.59c-3.43 0-6.63-.95-9.37-2.59.18-1.07.5-2.13.88-3.2 1.01-2.61 5.18-3.57 6.39-3.79.22-.04.34-.06.34-.06h3.52s.12.02.34.06c1.21.22 5.38 1.18 6.39 3.79.38 1.07.7 2.13.88 3.2" id="Fill-33" fill="#4DB6AC"/><path d="M100.138 146.441l-.805-5.784a1.338 1.338 0 0 0-2.65 0l-.804 5.784a2.148 2.148 0 1 0 4.258 0" id="Fill-34" fill="#FFB74D"/><path d="M130.384 362.686c0 8.87-6.35 16.25-14.76 17.84-.08.03-.17.04-.261.05-1.02.19-2.08.28-3.16.28-2.78 0-5.42-.62-7.78-1.75a18.164 18.164 0 0 1-6.27-4.88 18.174 18.174 0 0 1-4.13-11.54c0-10.05 8.14-18.18 18.18-18.18s18.18 8.13 18.18 18.18" id="Fill-35" fill="#BA68C8"/><path d="M122.393 362.516a4.67 4.67 0 0 1-1.859 1.52c-.28.12-.72.38-1.21.74-.7.49-1.52 1.19-2.18 1.97-.53.61-.95 1.28-1.14 1.96-.22.79-.59 1.67-.97 2.58-.77 1.86-1.56 3.84-1.17 5.48 0 .02 0 .05.01.07.46 1.85 1 2.91 1.49 3.74-1.02.19-2.08.28-3.16.28-2.78 0-5.42-.62-7.78-1.75a18.164 18.164 0 0 1-6.27-4.88c1.83-2.67 4.52-4.81 4.79-6.6.5-3.2-.85-4.2-.71-8.83.23-7.33 6.41-8.72 9.5-8.72.39 0 .78.01 1.15.04h.03c1.37.1 2.59.38 3.66.78.01 0 .03.01.04.02 3.25 1.22 5.19 3.61 6.12 5.82.14.33.26.67.36.99.11.37.18.73.22 1.07v.02c.2 1.54-.25 2.79-.92 3.7" id="Fill-36" fill="#FFD54F"/><path d="M121.785 362.876c0 4.67-3.399 8.457-7.594 8.457-4.193 0-7.594-3.787-7.594-8.457 0-4.67 3.401-8.457 7.594-8.457 4.195 0 7.594 3.787 7.594 8.457" id="Fill-37" fill="#FFB74D"/><path d="M105.442 364.242s.918 5.934 1.896 5.802c2.395-.323-.003-8.009 6.445-7.922 5.896.08 4.682-8.343 4.243-9.953-.438-1.61-6.292-3.292-8.999-.732-2.707 2.561-4.17 7.756-3.585 12.805" id="Fill-38" fill="#FFD54F"/><path d="M123.313 358.792v.027a4.827 4.827 0 0 1-.922 2.356c-2.28-.734-5.956-2.289-6.34-4.738-.55-3.58 3.09-2.55 5.371-.842.52.384.956.761 1.313 1.138.141.336.263.673.356.996.108.37.182.727.222 1.063" id="Fill-39" fill="#FFD54F"/><path d="M112.568 365.105c-.605.975-2.499.893-3.473.287a2.079 2.079 0 0 1 2.194-3.529c.974.606 1.885 2.267 1.28 3.242" id="Fill-40" fill="#FFB74D"/><path d="M121.28 367.838c-.472.758-2.256.501-3.229-.104-.975-.606-1.383-1.712-.912-2.47.471-.759 1.644-.882 2.618-.276s1.994 2.092 1.523 2.85" id="Fill-41" fill="#FFB74D"/><path d="M107.083 375.227l1.41-6.75c.15-.672 1.096-1.91 1.768-1.76.59.131.988.663.972 1.247l-.2 7.75a2 2 0 1 1-3.951-.487" id="Fill-42" fill="#FFB74D"/><path d="M115.624 380.526c-.08.03-.17.04-.261.05-1.02.19-2.08.28-3.16.28-2.78 0-5.42-.62-7.78-1.75.01-.21.03-.39.08-.52.97-2.51 2.76-5.56 3.19-6.28.07-.1.1-.16.1-.16l3.22 1.5s.02.02.07.06c.31.29 1.62 1.52 2.78 3.06.63.84 1.22 1.78 1.58 2.7.09.26.15.63.18 1.06" id="Fill-43" fill="#9575CD"/><path d="M434.855 236.051H163.902a4.268 4.268 0 0 1-4.269-4.268V85.3a4.268 4.268 0 0 1 4.27-4.268h270.952a4.268 4.268 0 0 1 4.268 4.268v146.484a4.268 4.268 0 0 1-4.268 4.268" id="Fill-44" fill="#ECEFF1"/><path id="Fill-45" fill="#64B5F6" d="M187 208h28v-98h-28z"/><path id="Fill-46" fill="#42A5F5" d="M215 208h28v-54h-28z"/><path id="Fill-47" fill="#1E88E5" d="M243 208h28v-71h-28z"/><path id="Fill-48" fill="#1976D2" d="M271 208h28v-33h-28z"/><path id="Fill-49" fill="#1565C0" d="M299 208h28v-49h-28z"/><path id="Fill-50" fill="#4DB6AC" d="M327 208h28v-81h-28z"/><path id="Fill-51" fill="#1565C0" d="M355 208h28v-63h-28z"/><path id="Fill-52" fill="#1976D2" d="M383 208h28v-88h-28z"/><path d="M406.074 268.752a4 4 0 0 1-4-4v-93.071a4 4 0 0 1 4-4h195.787a4 4 0 0 1 4 4v93.071a4 4 0 0 1-4 4H406.074z" id="Fill-53" fill="#FFD54F"/><path d="M552.886 277.627c0 4.7-1.78 8.97-4.71 12.2a17.99 17.99 0 0 1-6.1 4.41c-.33.15-.668.29-1.01.42-.73.27-1.49.5-2.27.67-1.31.31-2.68.47-4.09.47-2.66 0-5.19-.57-7.46-1.6a1.25 1.25 0 0 1-.26-.12c-.038-.01-.07-.03-.1-.04-.86-.41-1.688-.89-2.46-1.43-4.769-3.27-7.9-8.76-7.9-14.98 0-10.05 8.14-18.18 18.18-18.18s18.18 8.13 18.18 18.18" id="Fill-54" fill="#64B5F6"/><path d="M548.177 289.827a17.99 17.99 0 0 1-6.1 4.41c-.33.15-.67.29-1.01.42-.73.27-1.49.5-2.27.67-1.31.31-2.68.47-4.09.47-2.66 0-5.19-.57-7.46-1.6-.09-.03-.18-.07-.26-.12-.03-.01-.06 0-.1 0-.01-.01 0-.02 0-.04.27-2.08 1.1-4.05 1.43-5.4.14-.56.24-1.13.31-1.7.18-1.54.12-3.1-.23-4.61-.03-.18-.07-.35-.12-.52-.54-1.96-1.35-3.27-2.27-3.68-.03-.01-.05-.03-.08-.04h-.01c-1.47-.73-3.11-3.37-2.19-6.36.93-3.06 4.69-7.59 11.07-7.53 6.13.06 9.09 1.97 9.24 8.68.09 4.24-1.15 5.14-.72 8.08.3 2.04 3.28 5.6 4.86 8.87" id="Fill-55" fill="#FF7043"/><path d="M525.763 276.45a7.741 7.741 0 1 0 15.482.136 7.741 7.741 0 0 0-15.482-.136" id="Fill-56" fill="#FFB74D"/><path d="M542.29 277.848s-4.89.16-7.616-2.008c-2.728-2.17-4.22-7.675-3.804-9.145.415-1.47 5.786-2.962 8.243-.597 2.457 2.367 3.755 7.134 3.178 11.75" id="Fill-57" fill="#FF7043"/><path d="M524.98 275.384s8.252-1.735 8.89-5.614c.636-3.88-3.325-2.797-5.819-.967-2.495 1.83-3.177 3.298-3.072 6.58" id="Fill-58" fill="#FF7043"/><path d="M538.224 278.601c.547.897 2.28.838 3.177.291a1.902 1.902 0 1 0-1.98-3.248c-.896.547-1.743 2.06-1.197 2.957" id="Fill-59" fill="#FFB74D"/><path d="M542.077 294.237c-.33.15-.67.29-1.011.42-.729.27-1.489.5-2.269.67-1.311.31-2.68.47-4.09.47-2.66 0-5.191-.57-7.46-1.6-.061-.08-.15-.11-.261-.12-.029-.01-.059 0-.099 0-.01-.01 0-.02 0-.04-.861-.41-1.69-.89-2.46-1.43.219-1.1.62-2.37 1.33-3.45.16-.25.36-.47.58-.67.67-.59 1.479-1.11 2.29-1.55a24.025 24.025 0 0 1 3.229-1.48c.16-.06.25-.09.25-.09l2.431.02s.08.02.229.05c.991.23 4.851 1.24 6.111 3.28 1.92 3.77 1.34 4.64 1.2 5.52" id="Fill-60" fill="#455A64"/><path d="M531.846 285.535l.591-3.992a.925.925 0 0 1 1.832.017l.519 4a1.483 1.483 0 1 1-2.941-.026" id="Fill-61" fill="#FFB74D"/><path d="M209.192 274.196c2.217 0 2.925 0 3.925-.333a4.202 4.202 0 0 0 2.542-2.542c.333-1 .333-1.708.333-3.925v-6.4c0-2.217 0-2.925-.333-3.925a4.202 4.202 0 0 0-2.542-2.542c-1-.333-1.708-.333-3.925-.333h-6.399c-2.217 0-2.926 0-3.926.333a4.2 4.2 0 0 0-2.54 2.542c-.335 1-.335 1.708-.335 3.925v6.4c0 2.217 0 2.925.334 3.925a4.26 4.26 0 0 0 2.543 2.542c1 .333 1.707.333 3.924.333h6.4z" id="Fill-62" fill="#ECEFF1"/><path d="M469.342 149.503c2.217 0 2.925 0 3.925-.333a4.202 4.202 0 0 0 2.542-2.542c.333-1 .333-1.708.333-3.925v-6.4c0-2.217 0-2.925-.333-3.925a4.205 4.205 0 0 0-2.542-2.542c-1-.333-1.708-.333-3.925-.333h-6.4c-2.217 0-2.925 0-3.925.333a4.202 4.202 0 0 0-2.542 2.542c-.333 1-.333 1.708-.333 3.925v6.4c0 2.217 0 2.925.333 3.925a4.264 4.264 0 0 0 2.544 2.542c1 .333 1.706.333 3.923.333h6.4z" id="Fill-63" fill="#ECEFF1"/><path d="M501.432 396.899c2.217 0 2.925 0 3.925-.333a4.202 4.202 0 0 0 2.542-2.542c.333-1 .333-1.708.333-3.925v-6.4c0-2.217 0-2.925-.333-3.925a4.205 4.205 0 0 0-2.542-2.542c-1-.333-1.708-.333-3.925-.333h-6.4c-2.217 0-2.925 0-3.925.333a4.202 4.202 0 0 0-2.542 2.542c-.333 1-.333 1.708-.333 3.925v6.4c0 2.217 0 2.925.333 3.925a4.264 4.264 0 0 0 2.544 2.542c1 .333 1.706.333 3.923.333h6.4z" id="Fill-64" fill="#ECEFF1"/><path d="M444.716 399.76c8.025-1.214 12.049-26.958 7.224-29.46-2.168-1.123-5.548 2.74-6.963 1.58-2.785-2.281 8.295-18.894 5.907-20.741-1.47-1.137-6.395 4.595-8.387 3.368-3.72-2.29 7.615-25.873 4.754-27.435-1.547-.845-5.627 5.628-7.722 4.68-3.54-1.596 2.923-22.381.59-23.194-1.257-.44-3.257 5.57-6.092 5.41-4.693-.268-6.844-17.171-9.331-16.917-1.565.159-.57 6.84-4.18 9-4.435 2.656-12.076-3.748-13.021-2.533-1.403 1.804 15.362 16.08 13.445 18.91-1.14 1.684-8.07-1.875-9.178-.112-1.512 2.405 9.88 11.418 8.272 13.862-.81 1.232-4.106-.44-4.953.759-1.99 2.815 13.457 15.939 11.546 18.61-.838 1.17-4.268-.706-5.032.41-1.82 2.665 16.35 15.36 13.538 22.55-.696 1.78-2.045 1.603-2.85 3.576-2.527 6.207 6.5 18.574 12.433 17.677" id="Fill-65" fill="#26A69A"/><path d="M439.923 370.862c3.732-3.227-9.708-23.459-7.087-25.373 1.467-1.07 6.312 4.808 8.3 3.608 3.575-2.156-6.756-24.325-4.008-25.777 1.478-.78 5.195 5.246 7.15 4.385 3.329-1.466-2.871-20.926-.365-21.87 1.673-.632 5.76 7.543 7.475 6.846 2.049-.833-2.072-13.2 1.179-14.872 1.476-.759 2.92 1.482 5.127.893 4.23-1.129 4.393-10.83 6.095-10.82 1.825.011 1.816 11.172 5.658 12.096 2.792.67 6.173-4.413 6.676-4.008.779.626-8.89 11.517-6.493 14.943 1.833 2.62 9.603-.726 10.48 1.13 1.167 2.46-11.694 10.03-10.59 12.35.885 1.855 9.833-1.537 10.669.164 1.372 2.794-20.868 15.78-19.488 18.528.69 1.372 6.619-1.106 7.59.57 1.747 3.013-14.972 15.304-13.72 17.143.753 1.104 7.122-2.825 8.272-1.399 1.83 2.27-11.644 15.534-10.293 17.007.744.812 4.936-3.107 6.303-2.079 2.562 1.927-3.96 21.88-12.725 22.336-9.86.514-18.26-23.863-14.491-26.905 1.897-1.533 6.397 2.737 8.286 1.104" id="Fill-66" fill="#4DB6AC"/><path id="Fill-67" fill="#BA68C8" d="M425.748 387.337l5.993 30.245h24.253l5.993-30.245z"/><path d="M74.169 335.536c1.108 0 1.463 0 1.963-.167a2.1 2.1 0 0 0 1.27-1.27c.167-.5.167-.855.167-1.963v-3.2c0-1.108 0-1.463-.167-1.963a2.097 2.097 0 0 0-1.27-1.27c-.5-.167-.855-.167-1.963-.167h-3.2c-1.108 0-1.462 0-1.962.167a2.098 2.098 0 0 0-1.271 1.27c-.167.5-.167.855-.167 1.963v3.2c0 1.108 0 1.463.167 1.963a2.13 2.13 0 0 0 1.272 1.27c.5.167.853.167 1.962.167h3.199z" id="Fill-68" fill="#2196F3"/><path d="M477.741 134.503c1.108 0 1.463 0 1.963-.167a2.1 2.1 0 0 0 1.27-1.27c.167-.5.167-.855.167-1.963v-3.2c0-1.108 0-1.463-.167-1.963a2.097 2.097 0 0 0-1.27-1.27c-.5-.167-.855-.167-1.963-.167h-3.199c-1.109 0-1.463 0-1.963.167a2.098 2.098 0 0 0-1.271 1.27c-.167.5-.167.855-.167 1.963v3.2c0 1.108 0 1.463.167 1.963a2.128 2.128 0 0 0 1.272 1.27c.5.167.853.167 1.962.167h3.199z" id="Fill-69" fill="#2196F3"/><path d="M554.486 353.603c1.108 0 1.463 0 1.963-.167a2.097 2.097 0 0 0 1.27-1.27c.167-.5.167-.855.167-1.963v-3.2c0-1.108 0-1.463-.167-1.963a2.097 2.097 0 0 0-1.27-1.27c-.5-.167-.855-.167-1.963-.167h-3.199c-1.109 0-1.463 0-1.963.167a2.098 2.098 0 0 0-1.27 1.27c-.168.5-.168.855-.168 1.963v3.2c0 1.108 0 1.463.167 1.963a2.13 2.13 0 0 0 1.272 1.27c.5.167.853.167 1.962.167h3.2z" id="Fill-70" fill="#2196F3"/><path d="M446.235 200.636c0 6.672-5.409 12.08-12.08 12.08-6.673 0-12.08-5.408-12.08-12.08s5.407-12.08 12.08-12.08c6.671 0 12.08 5.408 12.08 12.08" id="Fill-71" fill="#FFA000"/><path d="M467.282 196.378a1.047 1.047 0 0 1-1.047-1.047v-2.094c0-.578.469-1.047 1.047-1.047h59.758c.578 0 1.047.469 1.047 1.047v2.094c0 .578-.47 1.047-1.047 1.047h-59.758z" id="Fill-72" fill="#FFF"/><path d="M467.282 202.73a1.047 1.047 0 0 1 0-2.094h103.33a1.047 1.047 0 0 1 0 2.094h-103.33z" id="Fill-73" fill="#FFF"/><path d="M467.282 209.082a1.047 1.047 0 0 1 0-2.094h62.995a1.047 1.047 0 0 1 0 2.094h-62.995z" id="Fill-74" fill="#FFF"/><path d="M446.235 235.797c0 6.672-5.409 12.081-12.08 12.081-6.673 0-12.08-5.409-12.08-12.081s5.407-12.081 12.08-12.081c6.671 0 12.08 5.409 12.08 12.081" id="Fill-75" fill="#FFA000"/><path d="M467.282 231.539a1.047 1.047 0 0 1-1.047-1.047v-2.094c0-.578.469-1.046 1.047-1.046h43.758c.578 0 1.047.468 1.047 1.046v2.094c0 .578-.47 1.047-1.047 1.047h-43.758z" id="Fill-76" fill="#FFF"/><path d="M467.282 237.891a1.047 1.047 0 0 1 0-2.094h93.33a1.047 1.047 0 0 1 0 2.094h-93.33z" id="Fill-77" fill="#FFF"/><path d="M467.282 244.243a1.047 1.047 0 0 1 0-2.094h72.995a1.047 1.047 0 0 1 0 2.094h-72.995z" id="Fill-78" fill="#FFF"/><path d="M169.222 300.18h-112a4 4 0 0 1-4-4v-112a4 4 0 0 1 4-4h112a4 4 0 0 1 4 4v112a4 4 0 0 1-4 4" id="Fill-79" fill="#BA68C8"/><path d="M113.22 196.531c-24.102 0-43.65 19.54-43.65 43.65 0 16.41 9.049 30.7 22.44 38.16l11.819-21.27c-5.92-3.3-9.92-9.63-9.92-16.89 0-10.67 8.64-19.32 19.31-19.32 3.19 0 6.21.78 8.87 2.15l11.17-21.62c-6-3.11-12.82-4.86-20.04-4.86" id="Fill-80" fill="#FFD54F"/><path d="M156.869 240.181c0 15.28-7.85 28.73-19.739 36.53l-13.33-20.37c5.269-3.45 8.739-9.4 8.739-16.16 0-1.42-.149-2.8-.449-4.13l23.779-5.19c.66 3.01 1 6.12 1 9.32" id="Fill-81" fill="#FFB300"/><path d="M155.869 230.861l-23.779 5.19c-1.231-5.69-4.971-10.43-10-13.04l11.17-21.62c11.37 5.89 19.819 16.62 22.609 29.47" id="Fill-82" fill="#FFA000"/><path d="M137.13 276.712a43.508 43.508 0 0 1-23.91 7.12c-7.7 0-14.931-1.99-21.21-5.49l11.819-21.27a19.219 19.219 0 0 0 9.39 2.43c3.9 0 7.54-1.16 10.58-3.16l13.33 20.37z" id="Fill-83" fill="#FFCA28"/><path d="M382.233 255.947l-4.496-3.742a.706.706 0 0 0-.994.09l-7.675 9.223c-.25.3-.209.745.091.994l4.496 3.743c.3.249.744.208.994-.092l7.675-9.222a.705.705 0 0 0-.09-.994" id="Fill-84" fill="#455A64"/><path d="M380.77 256.143l-2.96-2.462a.557.557 0 0 0-.785.071l-6.474 7.78a.557.557 0 0 0 .072.784l2.96 2.463a.557.557 0 0 0 .784-.073l6.473-7.778a.557.557 0 0 0-.07-.785" id="Fill-85" fill="#2196F3"/><path d="M341.318 418.896a4.458 4.458 0 0 1-1.589 1.321 3.933 3.933 0 0 1-1.59.39 3.37 3.37 0 0 1-1.589-.33c-.529-.254-1.059-.622-1.588-1.343a2.286 2.286 0 0 1 0-2.703c.53-.722 1.06-1.089 1.588-1.344.53-.25 1.06-.348 1.59-.329.53.015 1.06.138 1.59.39.528.27 1.06.633 1.588 1.32a2.156 2.156 0 0 1 0 2.628" id="Fill-86" fill="#E57373"/><path d="M341.837 418.896a5.026 5.026 0 0 1-1.82 1.321 5.054 5.054 0 0 1-1.822.39 4.342 4.342 0 0 1-1.82-.33 4.572 4.572 0 0 1-1.82-1.343 2.1 2.1 0 0 1 0-2.703 4.575 4.575 0 0 1 1.82-1.344 4.358 4.358 0 0 1 1.82-.329 5.054 5.054 0 0 1 1.822.39 5.038 5.038 0 0 1 1.82 1.32c.67.76.654 1.888 0 2.628" id="Fill-87" fill="#E57373"/><path d="M335.44 415.571l-1.772-24.189-.885-12.095-1.007-12.093.04.59c-.338-1.926-.582-3.863-.786-5.805-.205-1.94-.447-3.878-.908-5.788-.454-1.912-1.006-3.81-1.882-5.67-.852-1.865-2.009-3.69-3.03-5.533-1.066-1.837-1.907-3.7-2.38-5.61-.479-1.908-.659-3.853-.766-5.806a29.863 29.863 0 0 1 .322-5.939c.32-2.004.83-4.033 1.842-6.122l.218-.45a8.605 8.605 0 0 1 11.495-3.99 8.722 8.722 0 0 1 3.171 2.633c1.332 1.805 2.278 3.657 3.094 5.524.825 1.866 1.45 3.757 1.96 5.661.99 3.813 1.607 7.671 1.31 11.64l-1.086 11.93c-.393 3.98-1.139 8.004-1.264 11.951l.042.623c-.585 4.044-.43 8.078-.645 12.116l-.652 12.117-1.309 24.232-.002.024a2.566 2.566 0 0 1-5.12.05" id="Fill-88" fill="#263238"/><path d="M320.836 418.896a5.018 5.018 0 0 1-1.82 1.321 5.05 5.05 0 0 1-1.821.39 4.347 4.347 0 0 1-1.821-.33 4.578 4.578 0 0 1-1.82-1.343 2.1 2.1 0 0 1 0-2.703 4.582 4.582 0 0 1 1.82-1.344 4.363 4.363 0 0 1 1.82-.329 5.05 5.05 0 0 1 1.822.39 5.03 5.03 0 0 1 1.82 1.32c.67.76.654 1.888 0 2.628" id="Fill-89" fill="#E57373"/><path d="M314.914 415.456l-.781-23.788-.39-11.894c-.143-3.965-.17-7.926-.581-11.901l.048-.564c-.02-4.03-.331-8.1-.493-12.15-.072-2.023-.118-4.043-.218-6.071l-.413-6.097c-.276-4.065.07-8.045.995-11.948a31.624 31.624 0 0 1 2.015-5.77c.445-.945.92-1.888 1.526-2.813.57-.93 1.213-1.85 2.027-2.747l.836-.921a7.324 7.324 0 0 1 10.345-.5 7.406 7.406 0 0 1 2.059 3.21c1.333 4.209 1.358 8.24.97 12.215-.383 3.976-1.518 7.85-3.058 11.67-.73 1.915-1.53 3.82-2.142 5.752a54.006 54.006 0 0 0-1.517 5.836c-.754 3.925-1.132 7.902-1.84 11.834l.047-.545-.581 5.92-.647 5.917-1.215 11.838-2.43 23.676a2.287 2.287 0 0 1-4.562-.16" id="Fill-90" fill="#263238"/><path d="M379.728 263.127c-.177.502-.396.981-.615 1.46a1.022 1.022 0 0 1-.82.59l-.254.026c-.84.089-1.678.12-2.518-.037a1.225 1.225 0 0 1 0-2.411c.56-.106 1.22-.118 1.979-.038.309-.426.085-.236.437-.637.343-.406.697-.805 1.105-1.173a.706.706 0 0 1 1 .05c.16.177.213.416.166.63a12.136 12.136 0 0 1-.48 1.54z" id="Fill-91" fill="#FFB74D"/><path d="M374.988 261.541c.28.334.425.717.573 1.1.12.391.24.783.247 1.215a.322.322 0 0 1-.573.207c-.269-.338-.427-.717-.585-1.095-.13-.388-.26-.777-.259-1.212a.338.338 0 0 1 .597-.215" id="Fill-92" fill="#FFB74D"/><path d="M336.168 274.67l27.714 6.33 9.817-17.92 3.646 1.759-8.97 21.419a3.014 3.014 0 0 1-3.057 1.837l-.4-.038-30.465-2.864 1.715-10.523z" id="Fill-93" fill="#FF7043"/><path d="M268.234 262.391c.691.29 1.256.696 1.788 1.131.522.446 1.001.93 1.34 1.538a1.238 1.238 0 0 1-1.789 1.617c-.573-.398-1.005-.924-1.396-1.487-.379-.573-.726-1.175-.946-1.894a.747.747 0 0 1 1.003-.905" id="Fill-94" fill="#FFB74D"/><path d="M271.598 263.665c.002.436-.13.824-.26 1.212-.157.38-.314.757-.585 1.095a.321.321 0 0 1-.573-.206c.008-.433.128-.825.247-1.217.15-.382.295-.764.574-1.099a.338.338 0 0 1 .597.215" id="Fill-95" fill="#FFB74D"/><path d="M319.982 286.695l-28.883 2.866-.382.038a2.995 2.995 0 0 1-2.496-.967l-19.199-21.347 2.89-2.833L291.88 283l26.294-6.813 1.81 10.508z" id="Fill-96" fill="#FF7043"/><path d="M340.895 320.608c-1.459-4.585-1.858-10.771-1.97-15.357a73.023 73.023 0 0 1 .03-3.439c.017-1.146.086-2.293.296-3.439.391-2.293 1.298-4.586 2.165-6.879.861-2.292 1.506-4.585 1.432-6.878-.057-2.293-.709-4.586-1.52-6.879-1.777-4.585-10.07-5.753-10.07-5.753h-5.267s-8.294 1.168-10.072 5.753c-.81 2.293-1.463 4.586-1.519 6.879-.074 2.293.571 4.586 1.432 6.878.867 2.293 1.773 4.586 2.165 6.879.21 1.146.28 2.293.296 3.439.045 1.146.04 2.293.03 3.439-.112 4.586-.512 10.772-1.97 15.357a37.008 37.008 0 0 0 24.542 0" id="Fill-97" fill="#FF7043"/><path d="M325.92 272.361l1.022-8.657a1.693 1.693 0 0 1 3.366 0l1.019 8.657a2.721 2.721 0 1 1-5.406 0" id="Fill-98" fill="#FFB74D"/><path d="M318.134 253.315c-1.44 2.314-5.936 2.121-8.25.682a4.935 4.935 0 0 1 5.21-8.382c2.315 1.439 4.478 5.386 3.04 7.7" id="Fill-99" fill="#FFB74D"/><path d="M340.124 253.315c1.438 2.314 5.935 2.121 8.249.682a4.936 4.936 0 0 0-5.211-8.382c-2.314 1.439-4.477 5.386-3.038 7.7" id="Fill-100" fill="#FFB74D"/><path d="M349.214 248.021c0 11.092-8.992 20.085-20.085 20.085s-20.086-8.993-20.086-20.085c0-11.093 8.993-20.085 20.086-20.085 11.093 0 20.085 8.992 20.085 20.085" id="Fill-101" fill="#512DA8"/><path d="M348.497 253.495c2.01-7.225 1.863-12.444-.474-17.666-1.831-4.093-8.854-9.492-17.297-9.492-10.348 0-14.91 2.676-17.356 6.413-2.446 3.739-6.33 12.12-3.415 21.268 2.017 6.333 9.348 10.232 6.612 19.95-1.598 5.68-14.007 12.27-8.718 23.528 6.768 14.406 41.204 9.353 42.212-2.52 1.009-11.873-9.034-7.41-9.178-17.614-.121-8.57 5.047-14.645 7.614-23.867" id="Fill-102" fill="#7B1FA2"/></g></g></svg>