<svg height="511pt" viewBox="0 0 511.99974 511" width="511pt" xmlns="http://www.w3.org/2000/svg"><path d="m512 256.5c0 43.820312-11.011719 85.074219-30.425781 121.132812-.128907.25-.253907.492188-.386719.730469-1.839844 3.398438-3.761719 6.75-5.757812 10.0625-18.652344 30.972657-43.6875 57.65625-73.28125 78.273438-2.808594 1.953125-5.652344 3.855469-8.546876 5.703125-39.734374 25.382812-86.945312 40.09375-137.601562 40.09375-141.382812 0-255.99609375-114.613282-255.99609375-255.996094 0-141.386719 114.61328175-256 255.99609375-256 40.238281 0 78.304688 9.277344 112.179688 25.828125 8.183593 3.992187 16.113281 8.402344 23.78125 13.21875 42.71875 26.832031 76.957031 65.921875 97.761718 112.347656 8.789063 19.601563 15.183594 40.519531 18.808594 62.371094 2.277344 13.738281 3.46875 27.84375 3.46875 42.234375zm0 0" fill="#3d4159"/><path d="m.613281 213.757812 12.03125 30.914063c1.714844 4.375 6.503907 6.6875 10.988281 5.265625l25.792969-8.132812c3.675781-1.15625 7.644531.207031 9.914063 3.3125 7.058594 9.695312 15.320312 18.242187 24.46875 25.527343 3.019531 2.410157 4.21875 6.433594 2.894531 10.070313l-9.230469 25.414062c-1.601562 4.414063.5 9.316406 4.789063 11.195313l30.402343 13.371093c4.289063 1.878907 9.316407.109376 11.488282-4.054687l12.492187-23.992187c1.78125-3.414063 5.554688-5.265626 9.371094-4.667969 11.558594 1.8125 23.4375 2.117187 35.34375.765625 3.832031-.429688 7.519531 1.574218 9.148437 5.070312l11.449219 24.496094c1.992188 4.261719 6.933594 6.238281 11.308594 4.539062l30.914063-12.046874c4.375-1.699219 6.683593-6.5 5.265624-10.972657l-8.132812-25.789062c-1.15625-3.679688.207031-7.660157 3.328125-9.929688 9.679687-7.0625 18.214844-15.304687 25.5-24.457031 2.40625-3.019531 6.433594-4.21875 10.066406-2.894531l25.441407 9.230469c4.417968 1.589843 9.304687-.5 11.199218-4.789063l13.355469-30.402344c1.878906-4.300781.109375-9.328125-4.054687-11.488281l-23.992188-12.492188c-3.425781-1.78125-5.277344-5.554687-4.667969-9.371093 1.824219-11.558594 2.117188-23.4375.78125-35.34375-.433593-3.832031 1.574219-7.519531 5.054688-9.148438l24.496093-11.449219c4.25-1.992187 6.226563-6.933593 4.527344-11.308593l-12.046875-30.925781c-1.699219-4.375-6.503906-6.671876-10.972656-5.265626l-25.78125 8.132813c-3.675781 1.15625-7.644531-.195313-9.914063-3.3125-7.058593-9.679687-15.316406-18.230469-24.46875-25.5-3.035156-2.410156-4.230468-6.449219-2.910156-10.070313l9.234375-25.441406c1.601563-4.402344-.488281-9.300781-4.789062-11.195312l-8.328125-3.652344-22.058594-9.703125c-4.304688-1.894531-9.332031-.125-11.488281 4.039063l-12.496094 24.007812c-1.78125 3.425781-5.570313 5.261719-9.382813 4.664062-11.558593-1.824218-23.425781-2.128906-35.332031-.777343-3.832031.429687-7.519531-1.574219-9.148437-5.070313l-7.535156-16.097656-3.914063-8.382812c-1.992187-4.25-6.933594-6.242188-11.308594-4.542969l-30.914062 12.046875c-4.375 1.699218-6.683594 6.503906-5.265625 10.988281l8.121094 25.777344c1.15625 3.675781-.195313 7.644531-3.316407 9.914062-9.679687 7.0625-18.226562 15.320313-25.511719 24.46875-2.410156 3.035157-6.433593 4.21875-10.066406 2.910157l-25.429687-9.246094c-4.402344-1.601563-9.304688.5-11.199219 4.789062l-13.351562 30.402344c-1.894532 4.289062-.128907 9.316406 4.035156 11.488281l23.996094 12.492188c3.425781 1.78125 5.277343 5.570312 4.679687 9.371093-1.824219 11.558594-2.128906 23.4375-.78125 35.34375.433594 3.832032-1.570313 7.519532-5.066406 9.148438l-24.5 11.449219c-4.246094 1.976562-6.234375 6.921875-4.523438 11.308593zm147.726563-101.648437c27.894531-9.257813 58.796875 4.320313 70.828125 31.140625 14.050781 31.320312-1.976563 67.792969-34.5625 78.597656-27.894531 9.261719-58.769531-4.300781-70.816407-31.125-14.050781-31.304687 1.964844-67.777344 34.550782-78.613281zm0 0" fill="#f2f0ec"/><path d="m56.484375 166.980469c0 60.746093 49.242187 109.988281 109.988281 109.988281s109.988282-49.242188 109.988282-109.988281c0-60.746094-49.242188-109.988281-109.988282-109.988281s-109.988281 49.242187-109.988281 109.988281zm91.855469-54.871094c27.894531-9.257813 58.796875 4.320313 70.828125 31.140625 14.050781 31.320312-1.976563 67.792969-34.5625 78.597656-27.894531 9.261719-58.769531-4.300781-70.816407-31.125-14.050781-31.304687 1.964844-67.777344 34.550782-78.613281zm0 0" fill="#d8d5d0"/><path d="m489.722656 151.894531c-20.804687-46.425781-55.042968-85.515625-97.761718-112.347656-7.667969-4.816406-15.597657-9.226563-23.78125-13.21875-1.222657 1.097656-2.757813 1.863281-4.472657 2.144531l-26.683593 4.355469c-4.628907.753906-7.890626 4.964844-7.429688 9.65625l3.164062 33.019531c.460938 4.679688 4.441407 8.199219 9.144532 8.054688l27.03125-.816406c3.855468-.113282 7.304687 2.277343 8.640625 5.882812 4.160156 11.253906 9.78125 21.722656 16.605469 31.222656 2.253906 3.144532 2.308593 7.34375.050781 10.480469l-15.800781 21.941406c-2.734376 3.816407-2.046876 9.101563 1.570312 12.078125l25.621094 21.128906c3.613281 2.976563 8.933594 2.644532 12.160156-.773437l18.546875-19.695313c2.632813-2.789062 6.769531-3.554687 10.28125-1.933593 10.628906 4.878906 21.984375 8.410156 33.804687 10.34375 3.800782.628906 6.8125 3.5625 7.429688 7.367187l4.355469 26.6875c.753906 4.636719 4.972656 7.886719 9.644531 7.4375l6.6875-.644531c-3.625-21.851563-10.019531-42.769531-18.808594-62.371094zm0 0" fill="#d8d5d0"/><path d="m391.960938 39.546875c-1.398438 49.164063 30.566406 94.875 80.050781 108.867187 5.894531 1.660157 11.816406 2.8125 17.710937 3.480469-20.804687-46.425781-55.042968-85.515625-97.761718-112.347656zm0 0" fill="#f2f0ec"/><path d="m223.5625 403.03125 2.289062 37.773438c.332032 5.351562 4.730469 9.53125 10.101563 9.550781l30.847656.15625c4.386719.023437 8.222657 2.894531 9.613281 7.054687 4.28125 12.988282 10.269532 25.148438 17.667969 36.257813 2.445313 3.667969 2.339844 8.453125-.367187 11.941406l-3.449219 4.453125c14.734375-1.964844 29.082031-5.195312 42.914063-9.570312 22.226562-7.011719 43.144531-16.992188 62.296874-29.457032-21.847656-8.839844-38.222656-29.152344-40.96875-53.71875-4.347656-38.902344 25.757813-72.921875 64.917969-73.328125 25.996094-.261719 49.164063 15.023438 59.976563 37.4375 11.160156-19.886719 19.738281-41.421875 25.289062-64.125 4.429688-18.140625 6.925782-37.03125 7.261719-56.457031l-12.238281 12.121094c-3.132813 3.09375-7.886719 3.773437-11.816406 1.796875-11.921876-6.019531-24.703126-10.480469-38.097657-13.164063-4.316406-.867187-7.628906-4.335937-8.171875-8.695312l-2.570312-20.113282-1.324219-10.46875c-.691406-5.308593-5.363281-9.1875-10.699219-8.871093l-37.773437 2.308593c-5.351563.324219-9.53125 4.734376-9.550781 10.09375l-.167969 30.824219c-.03125 4.398438-2.882813 8.234375-7.054688 9.613281-12.976562 4.292969-25.136719 10.28125-36.234375 17.679688-3.679687 2.464844-8.464844 2.339844-11.953125-.34375l-24.398437-18.902344c-4.222656-3.28125-10.273438-2.707031-13.824219 1.292969l-25.097656 28.359375c-3.554688 4.003906-3.386719 10.074219.375 13.886719l21.703125 21.933593c3.101562 3.121094 3.792968 7.886719 1.816406 11.804688-6.007812 11.921875-10.480469 24.714844-13.164062 38.117188-.867188 4.304687-4.335938 7.617187-8.695313 8.171874l-30.59375 3.886719c-5.308594.671875-9.195313 5.339844-8.859375 10.699219zm0 0" fill="#d8d5d0"/><path d="m333.179688 500.648438c22.226562-7.011719 43.144531-16.992188 62.296874-29.457032-21.847656-8.839844-38.222656-29.152344-40.96875-53.71875-4.347656-38.898437 25.757813-72.921875 64.917969-73.328125 25.996094-.261719 49.164063 15.023438 59.976563 37.4375 11.160156-19.882812 19.738281-41.417969 25.289062-64.125-12.925781-11.839843-28.570312-21.148437-46.351562-26.851562-65.976563-21.183594-136.621094 15.136719-157.789063 81.101562-15.152343 47.199219-.878906 96.789063 32.628907 128.941407zm0 0" fill="#f2f0ec"/><path d="m16.640625 347.519531c4.191406 10.992188 9.113281 21.617188 14.714844 31.824219 2.089843 3.835938 4.28125 7.597656 6.570312 11.308594 2.433594 3.949218 4.972657 7.835937 7.617188 11.636718 8.933593 12.886719 19.027343 24.902344 30.136719 35.925782.269531.09375.550781.207031.824218.3125 0 0 .011719 0 .011719.011718 5.765625 2.296876 11.25 5.503907 16.257813 9.613282 2.632812 2.160156 5.035156 4.480468 7.207031 6.949218 2.175781 2.433594 4.117187 5.003907 5.832031 7.679688.40625.625.792969 1.261719 1.171875 1.898438 16.363281 11.734374 34.167969 21.589843 53.101563 29.238281 4.019531 1.628906 8.097656 3.15625 12.214843 4.585937 20.78125 7.179688 42.777344 11.765625 65.597657 13.355469 1.210937-1.703125 1.890624-3.804687 1.785156-6.050781l-1.714844-35.953125c-.25-5.078125-4.386719-9.113281-9.476562-9.195313l-29.316407-.542968c-4.179687-.085938-7.808593-2.855469-9.050781-6.855469-3.804688-12.101563-9.257812-23.773438-16.300781-34.679688-2.265625-3.511719-2.101563-8.058593.492187-11.316406l18.253906-22.9375c3.164063-3.980469 2.695313-9.738281-1.054687-13.164063l-26.625-24.210937c-3.75-3.417969-9.527344-3.332031-13.1875.1875l-21.09375 20.335937c-3.019531 2.894532-7.523437 3.5-11.234375 1.566407-11.515625-5.988281-23.65625-10.304688-36.046875-12.945313-4.109375-.867187-7.222656-4.210937-7.691406-8.371094l-3.3125-29.152343c-.566407-5.046875-4.964844-8.789063-10.050781-8.558594l-9.84375.480469-26.101563 1.222656c-5.089844.242188-9.113281 4.378906-9.195313 9.46875zm0 0" fill="#f2f0ec"/><path d="m31.355469 379.34375c2.089843 3.835938 4.28125 7.597656 6.570312 11.308594 2.433594 3.949218 4.972657 7.835937 7.617188 11.636718 8.933593 12.886719 19.027343 24.902344 30.136719 35.925782.269531.09375.550781.207031.824218.3125 0 0 .011719 0 .011719.011718 5.765625 2.296876 11.25 5.503907 16.257813 9.613282 2.632812 2.160156 5.035156 4.480468 7.207031 6.949218 2.175781 2.433594 4.117187 5.003907 5.832031 7.679688.40625.625.792969 1.261719 1.171875 1.898438 16.363281 11.734374 34.167969 21.589843 53.101563 29.238281 4.019531 1.628906 8.097656 3.15625 12.214843 4.585937.3125-18.472656-3.679687-37.28125-12.46875-54.960937-24.25-48.796875-77.433593-73.675781-128.476562-64.199219zm0 0" fill="#d8d5d0"/><path d="m70.972656 163.667969 56.800782-56.804688c5.773437-5.769531 12.390624-10.460937 19.671874-13.941406 27.339844-13.125 60.132813-7.523437 81.59375 13.941406 2.65625 2.65625 5.105469 5.515625 7.277344 8.5 9.949219 13.632813 14.746094 30.46875 13.503906 47.398438-1.257812 17.109375-8.636718 33.222656-20.78125 45.367187l-56.800781 56.800782" fill="#f74f4f"/><path d="m146.382812 129.910156c-20.089843 20.09375-31.570312 55.101563-36.355468 72.8125l-39.054688-39.054687 56.800782-56.804688c5.769531-5.769531 12.390624-10.460937 19.667968-13.945312 27.179688-13.046875 59.757813-7.582031 81.222656 13.578125-15.957031-15.175782-54.796874-4.070313-82.28125 23.414062zm0 0" fill="#dd3033"/><path d="m117.199219 144.980469c-6.222657 6.222656-15.925781 6.835937-22.832031 1.84375-.753907-.546875-1.480469-1.160157-2.160157-1.84375-6.90625-6.902344-6.90625-18.089844 0-24.992188 6.902344-6.90625 18.089844-6.90625 24.992188 0 .683593.679688 1.296875 1.40625 1.839843 2.160157 4.992188 6.910156 4.378907 16.613281-1.839843 22.832031zm0 0" fill="#f6caae"/><g fill="#eab599"><path d="m117.199219 144.980469c-6.222657 6.222656-15.925781 6.835937-22.832031 1.84375 2.847656-5.011719 6.40625-9.726563 10.675781-13.996094s8.984375-7.828125 13.996093-10.679687c4.992188 6.910156 4.378907 16.613281-1.839843 22.832031zm0 0"/><path d="m111.015625 132.484375c0 3.488281-2.828125 6.316406-6.316406 6.316406s-6.316407-2.828125-6.316407-6.316406 2.828126-6.316406 6.316407-6.316406 6.316406 2.828125 6.316406 6.316406zm0 0"/><path d="m202.105469 197.972656-42.957031 42.957032c-12.980469-.300782-25.882813-4.425782-36.878907-12.371094-.089843-.0625-.179687-.128906-.265625-.191406-2.730468-1.976563-5.332031-4.207032-7.796875-6.671876-25.679687-25.679687-25.679687-67.3125 0-92.988281l17.703125-17.707031c2.269532-2.265625 4.660156-4.332031 7.152344-6.199219 3.105469 19.015625 19.753906 34.089844 39.410156 34.644531 6.507813.1875 12.597656-1.253906 17.90625-3.929687-6.257812 7.722656-9.867187 17.726563-9.554687 28.75.375 13.121094 6.214843 25.109375 15.28125 33.707031zm0 0"/></g><path d="m202.105469 197.972656-42.957031 42.957032c-12.980469-.300782-25.882813-4.425782-36.878907-12.371094-.089843-.0625-.179687-.128906-.265625-.191406-18.765625-25.714844-16.53125-61.96875 6.679688-85.179688l17.707031-17.707031c.472656-.472657.945313-.929688 1.429687-1.382813 7.359376 9.039063 18.421876 15.003906 30.65625 15.347656 6.507813.1875 12.59375-1.253906 17.902344-3.929687-6.257812 7.726563-9.863281 17.726563-9.554687 28.75.375 13.121094 6.214843 25.109375 15.28125 33.707031zm0 0" fill="#f6caae"/><path d="m189.597656 196.246094c4.265625-4.265625 4.265625-11.179688 0-15.445313s-11.179687-4.265625-15.445312 0" fill="#eab599"/><path d="m155.105469 161.753906c4.265625-4.265625 4.265625-11.179687 0-15.441406-4.265625-4.265625-11.179688-4.265625-15.441407 0" fill="#eab599"/><path d="m151.554688 157.320312c0 4.121094-3.339844 7.460938-7.457032 7.460938-4.121094 0-7.460937-3.339844-7.460937-7.460938 0-4.121093 3.339843-7.460937 7.460937-7.460937 4.117188 0 7.457032 3.339844 7.457032 7.460937zm0 0" fill="#3d4159"/><path d="m186.046875 191.808594c0 4.121094-3.339844 7.460937-7.460937 7.460937-4.117188 0-7.457032-3.339843-7.457032-7.460937 0-4.117188 3.339844-7.457032 7.457032-7.457032 4.121093 0 7.460937 3.339844 7.460937 7.457032zm0 0" fill="#3d4159"/><path d="m153.335938 193.121094-10.546876-10.550782c-1.257812-1.257812-1.257812-3.292968 0-4.550781 1.253907-1.257812 3.292969-1.257812 4.546876 0l10.550781 10.550781c1.257812 1.253907 1.257812 3.292969 0 4.550782-1.257813 1.253906-3.292969 1.253906-4.550781 0zm0 0" fill="#eab599"/><path d="m133.667969 202.238281c-3.894531-3.890625-6.8125-8.761719-8.410157-14.261719-.449218-1.550781.441407-3.171874 1.992188-3.625 1.550781-.449218 3.175781.441407 3.625 1.992188 2.632812 9.066406 9.621094 16.054688 18.6875 18.6875 1.550781.449219 2.441406 2.074219 1.992188 3.625-.449219 1.550781-2.074219 2.445312-3.625 1.992188-5.5-1.597657-10.367188-4.515626-14.261719-8.410157zm0 0" fill="#eab599"/><path d="m150.164062 158.328125c0 1.765625-1.433593 3.195313-3.195312 3.195313-1.765625 0-3.199219-1.429688-3.199219-3.195313s1.433594-3.195313 3.199219-3.195313c1.761719 0 3.195312 1.429688 3.195312 3.195313zm0 0" fill="#fff"/><path d="m184.910156 193.078125c0 1.765625-1.429687 3.195313-3.195312 3.195313s-3.195313-1.429688-3.195313-3.195313 1.429688-3.195313 3.195313-3.195313 3.195312 1.429688 3.195312 3.195313zm0 0" fill="#fff"/><path d="m182.539062 213.265625c0 4.523437-3.667968 8.191406-8.191406 8.191406-4.523437 0-8.191406-3.667969-8.191406-8.191406s3.667969-8.191406 8.191406-8.191406c4.523438 0 8.191406 3.667969 8.191406 8.191406zm0 0" fill="#eab599"/><path d="m130.828125 161.554688c0 4.523437-3.664063 8.191406-8.191406 8.191406-4.523438 0-8.1875-3.667969-8.1875-8.191406 0-4.523438 3.664062-8.191407 8.1875-8.191407 4.527343 0 8.191406 3.667969 8.191406 8.191407zm0 0" fill="#eab599"/><path d="m363.726562 419.925781c0 8.792969-6.425781 16.085938-14.835937 17.441407-.921875.148437-1.867187.226562-2.832031.226562-9.761719 0-17.667969-7.90625-17.667969-17.667969s7.90625-17.667969 17.667969-17.667969c.964844 0 1.910156.078126 2.832031.226563 8.410156 1.355469 14.835937 8.644531 14.835937 17.441406zm0 0" fill="#f6caae"/><path d="m363.726562 419.925781c0 8.792969-6.425781 16.085938-14.835937 17.441407-1.53125-5.558594-2.347656-11.40625-2.347656-17.441407 0-6.035156.816406-11.882812 2.347656-17.441406 8.410156 1.355469 14.835937 8.644531 14.835937 17.441406zm0 0" fill="#eab599"/><path d="m352.371094 419.925781c0 3.488281-2.824219 6.3125-6.3125 6.3125-3.488282 0-6.316406-2.824219-6.316406-6.3125s2.828124-6.3125 6.316406-6.3125c3.488281 0 6.3125 2.824219 6.3125 6.3125zm0 0" fill="#eab599"/><path d="m481.1875 378.363281c-19.125 35.265625-46.289062 65.523438-79.039062 88.335938-2.808594 1.953125-5.652344 3.855469-8.546876 5.703125-25.359374-9.109375-43.496093-33.371094-43.496093-61.867188v-25.023437c0-7.648438 1.304687-14.996094 3.71875-21.820313 8.984375-25.589844 33.363281-43.925781 62.015625-43.925781h.007812c3.480469 0 6.898438.273437 10.230469.792969 29.132813 4.546875 51.910156 28.234375 55.109375 57.804687zm0 0" fill="#eab599"/><path d="m481.1875 378.363281c-19.125 35.265625-46.289062 65.523438-79.039062 88.335938-18.929688-11.527344-31.574219-32.371094-31.574219-56.164063v-25.023437c0-32.832031 24.054687-60.042969 55.503906-64.953125 29.132813 4.546875 51.910156 28.234375 55.109375 57.804687zm0 0" fill="#f6caae"/><path d="m401.84375 406.707031c0 4.121094-3.339844 7.460938-7.457031 7.460938-4.121094 0-7.457031-3.339844-7.457031-7.460938 0-4.117187 3.335937-7.457031 7.457031-7.457031 4.117187 0 7.457031 3.339844 7.457031 7.457031zm0 0" fill="#3d4159"/><path d="m444.753906 406.707031c0 4.121094-3.335937 7.460938-7.457031 7.460938-4.117187 0-7.457031-3.339844-7.457031-7.460938 0-4.117187 3.339844-7.457031 7.457031-7.457031 4.121094 0 7.457031 3.339844 7.457031 7.457031zm0 0" fill="#3d4159"/><path d="m400.320312 405.394531c0 1.761719-1.429687 3.195313-3.195312 3.195313-1.761719 0-3.195312-1.433594-3.195312-3.195313 0-1.765625 1.433593-3.195312 3.195312-3.195312 1.765625 0 3.195312 1.429687 3.195312 3.195312zm0 0" fill="#fff"/><path d="m443.601562 405.394531c0 1.761719-1.429687 3.195313-3.195312 3.195313s-3.195312-1.433594-3.195312-3.195313c0-1.765625 1.429687-3.195312 3.195312-3.195312s3.195312 1.429687 3.195312 3.195312zm0 0" fill="#fff"/><path d="m423.300781 422.558594h-14.914062c-1.777344 0-3.21875-1.4375-3.21875-3.214844s1.441406-3.21875 3.21875-3.21875h14.914062c1.773438 0 3.214844 1.441406 3.214844 3.21875s-1.441406 3.214844-3.214844 3.214844zm0 0" fill="#eab599"/><path d="m415.84375 442.910156c-5.503906 0-11.011719-1.378906-16.027344-4.136718-1.414062-.777344-1.933594-2.554688-1.152344-3.972657.777344-1.414062 2.554688-1.929687 3.96875-1.152343 8.273438 4.546874 18.148438 4.546874 26.417969 0 1.417969-.777344 3.195313-.261719 3.972657 1.152343.777343 1.414063.261718 3.195313-1.152344 3.972657-5.019532 2.757812-10.523438 4.136718-16.027344 4.136718zm0 0" fill="#eab599"/><path d="m481.574219 362.785156v14.847656c-.128907.25-.253907.492188-.386719.730469-1.839844 3.398438-3.761719 6.75-5.757812 10.0625h-6.09375v-20.070312l-88.304688-16.417969-18.691406-3.46875v39.957031h-12.234375v-25.640625c0-29.226562 23.695312-52.925781 52.921875-52.925781h25.632812c.699219 0 1.390625.011719 2.089844.054687 28.253906 1.085938 50.824219 24.335938 50.824219 52.871094zm0 0" fill="#a35418"/><path d="m481.574219 362.785156v14.847656c-.128907.25-.253907.492188-.386719.730469-1.839844 3.398438-3.761719 6.75-5.757812 10.0625h-6.09375v-20.070312l-88.304688-16.417969c4.859375-23.371094 25.140625-41.082031 49.71875-42.023438 28.253906 1.085938 50.824219 24.335938 50.824219 52.871094zm0 0" fill="#cc7a3b"/></svg>