<svg height="512pt" viewBox="0 0 512 512" width="512pt" xmlns="http://www.w3.org/2000/svg"><path d="m512 256c0 80.894531-37.523438 153.035156-96.121094 199.941406-43.8125 35.085938-99.390625 56.058594-159.878906 56.058594-60.5 0-116.078125-20.980469-159.890625-56.070312-58.585937-46.90625-96.109375-119.035157-96.109375-199.929688 0-80.90625 37.53125-153.046875 96.140625-199.960938 25.957031-20.785156 56.046875-36.613281 88.847656-46.058593 22.539063-6.5 46.371094-9.980469 71.011719-9.980469s48.472656 3.480469 71.011719 9.980469c32.800781 9.445312 62.882812 25.273437 88.835937 46.046875 58.621094 46.914062 96.152344 119.054687 96.152344 199.972656zm0 0" fill="#66baed"/><g fill="#2a2f4f"><path d="m415.027344 186.523438h-17.414063v-111.273438h17.414063c6.828125 0 12.363281 5.535156 12.363281 12.363281v86.542969c0 6.832031-5.535156 12.367188-12.363281 12.367188zm0 0"/><path d="m95.480469 120.445312h21.898437v-45.195312h-21.898437c-4.351563 0-7.882813 3.527344-7.882813 7.878906v29.433594c0 4.355469 3.53125 7.882812 7.882813 7.882812zm0 0"/><path d="m95.480469 172.210938h21.898437v-45.195313h-21.898437c-4.351563 0-7.882813 3.527344-7.882813 7.882813v29.433593c0 4.351563 3.53125 7.878907 7.882813 7.878907zm0 0"/></g><path d="m415.878906 57.804688v398.136718c-43.8125 35.085938-99.390625 56.058594-159.878906 56.058594-60.5 0-116.078125-20.980469-159.890625-56.070312v-398.125c0-.597657.011719-1.183594.03125-1.765626.929687-25.601562 21.976563-46.058593 47.792969-46.058593h224.121094c25.820312 0 46.863281 20.457031 47.792968 46.046875.023438.585937.03125 1.179687.03125 1.777344zm0 0" fill="#3d4159"/><path d="m381.246094 446.992188h-250.5c-11.933594 0-21.609375-9.671876-21.609375-21.605469v-318.824219c0-11.933594 9.675781-21.609375 21.609375-21.609375h250.5c11.933594 0 21.609375 9.675781 21.609375 21.609375v318.824219c0 11.933593-9.675781 21.605469-21.609375 21.605469zm0 0" fill="#dde8ed"/><path d="m371.789062 381.292969c0 27.296875-22.125 49.421875-49.421874 49.421875-27.292969 0-49.417969-22.125-49.417969-49.421875 0-27.292969 22.125-49.417969 49.417969-49.417969 27.296874 0 49.421874 22.125 49.421874 49.417969zm0 0" fill="#f74f4f"/><path d="m239.046875 381.292969c0 27.296875-22.128906 49.421875-49.421875 49.421875s-49.421875-22.125-49.421875-49.421875c0-27.292969 22.128906-49.417969 49.421875-49.417969s49.421875 22.125 49.421875 49.417969zm0 0" fill="#3fb777"/><path d="m297.792969 54.664062h-83.59375c-4.328125 0-7.835938-3.511718-7.835938-7.839843 0-4.324219 3.507813-7.835938 7.835938-7.835938h83.59375c4.328125 0 7.835937 3.511719 7.835937 7.835938 0 4.328125-3.507812 7.839843-7.835937 7.839843zm0 0" fill="#2a2f4f"/><path d="m271.667969 482.648438c0 8.652343-7.015625 15.671874-15.671875 15.671874s-15.671875-7.019531-15.671875-15.671874c0-8.65625 7.015625-15.675782 15.671875-15.675782s15.671875 7.019532 15.671875 15.675782zm0 0" fill="#2a2f4f"/><path d="m184.949219 248.421875c0 11.992187-8.757813 21.933594-20.226563 23.777344-1.253906.203125-2.542968.308593-3.859375.308593-13.304687 0-24.085937-10.777343-24.085937-24.085937 0-13.304687 10.78125-24.085937 24.085937-24.085937 1.316407 0 2.605469.105468 3.859375.3125 11.46875 1.84375 20.226563 11.785156 20.226563 23.773437zm0 0" fill="#d3a489"/><path d="m184.949219 248.421875c0 11.992187-8.757813 21.933594-20.226563 23.777344-2.082031-7.574219-3.195312-15.546875-3.195312-23.777344 0-8.226563 1.113281-16.199219 3.195312-23.773437 11.46875 1.84375 20.226563 11.785156 20.226563 23.773437zm0 0" fill="#bf8e75"/><path d="m169.472656 248.421875c0 4.753906-3.855468 8.609375-8.609375 8.609375-4.753906 0-8.605469-3.855469-8.605469-8.609375s3.851563-8.605469 8.605469-8.605469c4.753907 0 8.609375 3.851563 8.609375 8.605469zm0 0" fill="#bf8e75"/><path d="m327.042969 248.421875c0 11.992187 8.757812 21.933594 20.226562 23.777344 1.253907.203125 2.542969.308593 3.859375.308593 13.304688 0 24.085938-10.777343 24.085938-24.085937 0-13.304687-10.78125-24.085937-24.085938-24.085937-1.316406 0-2.605468.105468-3.859375.3125-11.46875 1.84375-20.226562 11.785156-20.226562 23.773437zm0 0" fill="#d3a489"/><path d="m327.042969 248.421875c0 11.992187 8.757812 21.933594 20.226562 23.777344 2.082031-7.574219 3.195313-15.546875 3.195313-23.777344 0-8.226563-1.113282-16.199219-3.195313-23.773437-11.46875 1.84375-20.226562 11.785156-20.226562 23.773437zm0 0" fill="#bf8e75"/><path d="m359.738281 248.421875c0 4.753906-3.855469 8.609375-8.609375 8.609375s-8.609375-3.855469-8.609375-8.609375 3.855469-8.605469 8.609375-8.605469 8.609375 3.851563 8.609375 8.605469zm0 0" fill="#bf8e75"/><path d="m345.613281 235.621094c0 44.597656-32.578125 81.589844-75.234375 88.460937-4.679687.765625-9.480468 1.15625-14.382812 1.15625-49.496094 0-89.613282-40.121093-89.613282-89.617187 0-23.417969 8.132813-58.574219 22.839844-74.535156 16.375-17.777344 40.695313-15.078126 66.773438-15.078126 4.902344 0 9.703125.386719 14.382812 1.15625 42.65625 6.867188 75.234375 43.863282 75.234375 88.457032zm0 0" fill="#bf8e75"/><path d="m345.613281 235.621094c0 44.597656-32.578125 81.589844-75.234375 88.460937-42.652344-6.871093-75.230468-43.863281-75.230468-88.460937 0-27.457032 12.351562-52.039063 31.808593-68.476563 12.132813-10.261719 27.035157-17.339843 43.421875-19.980469 39.765625 6.398438 70.785156 38.996094 74.792969 79.523438.292969 2.9375.441406 5.921875.441406 8.933594zm0 0" fill="#d3a489"/><path d="m255.996094 279.757812c-7.503906 0-15.007813-1.878906-21.847656-5.640624-1.929688-1.058594-2.632813-3.484376-1.570313-5.414063 1.058594-1.929687 3.484375-2.632813 5.414063-1.570313 11.273437 6.199219 24.738281 6.199219 36.011718 0 1.929688-1.0625 4.355469-.355468 5.414063 1.570313 1.0625 1.933594.359375 4.355469-1.570313 5.414063-6.84375 3.761718-14.347656 5.640624-21.851562 5.640624zm0 0" fill="#bf8e75"/><path d="m236.914062 230.40625c0 5.613281-4.550781 10.164062-10.167968 10.164062-5.613282 0-10.164063-4.550781-10.164063-10.164062 0-5.617188 4.550781-10.167969 10.164063-10.167969 5.617187 0 10.167968 4.550781 10.167968 10.167969zm0 0" fill="#3d4159"/><path d="m295.414062 230.40625c0 5.613281-4.550781 10.164062-10.164062 10.164062-5.617188 0-10.167969-4.550781-10.167969-10.164062 0-5.617188 4.550781-10.167969 10.167969-10.167969 5.613281 0 10.164062 4.550781 10.164062 10.167969zm0 0" fill="#3d4159"/><path d="m234.839844 228.613281c0 2.40625-1.949219 4.355469-4.355469 4.355469s-4.355469-1.949219-4.355469-4.355469 1.949219-4.355469 4.355469-4.355469 4.355469 1.949219 4.355469 4.355469zm0 0" fill="#fff"/><path d="m293.839844 228.613281c0 2.40625-1.949219 4.355469-4.355469 4.355469s-4.355469-1.949219-4.355469-4.355469 1.949219-4.355469 4.355469-4.355469 4.355469 1.949219 4.355469 4.355469zm0 0" fill="#fff"/><path d="m266.164062 256h-20.332031c-2.421875 0-4.386719-1.960938-4.386719-4.382812 0-2.421876 1.964844-4.386719 4.386719-4.386719h20.332031c2.421876 0 4.386719 1.964843 4.386719 4.386719-.003906 2.421874-1.964843 4.382812-4.386719 4.382812zm0 0" fill="#bf8e75"/><path d="m250.753906 120.40625c27.148438 1.9375 48.945313 23.867188 50.324219 51.472656l.257813 5.183594h15.613281l8.414062 55.929688 20.371094-6.304688-2.734375-54.804688c-1.445312-29-25.429688-51.726562-54.453125-51.621093zm0 0" fill="#2a2f4f"/><path d="m341.273438 98.773438c21.617187 21.621093 21.617187 56.667968 0 78.285156-21.617188 21.621094-56.667969 21.621094-78.285157 0zm0 0" fill="#3d4159"/><path d="m262.988281 177.058594h-67.9375l-8.414062 55.933594-20.371094-6.304688 2.730469-54.808594c1.445312-28.992187 25.429687-51.722656 54.457031-51.617187l98.121094.371093 12.972656 23.347657" fill="#3d4159"/><path d="m261.242188 120.40625c-27.148438 1.9375-48.945313 23.867188-50.324219 51.472656l-.257813 5.183594h-15.617187l-8.410157 55.929688-20.371093-6.304688 2.734375-54.804688c1.445312-29 25.429687-51.726562 54.453125-51.621093zm0 0" fill="#2a2f4f"/></svg>